<?xml version="1.0" standalone="no"?>
<!DOCTYPE svg PUBLIC "-//W3C//DTD SVG 20010904//EN"
 "http://www.w3.org/TR/2001/REC-SVG-20010904/DTD/svg10.dtd">
<svg version="1.0" xmlns="http://www.w3.org/2000/svg"
 width="503.000000pt" height="731.000000pt" viewBox="0 0 503.000000 731.000000"
 preserveAspectRatio="xMidYMid meet">

<g transform="translate(0.000000,731.000000) scale(0.100000,-0.100000)"
fill="#000000" stroke="none">
<path d="M1881 5292 c-7 -14 -5 -21 10 -30 18 -11 18 -14 4 -36 -12 -18 -13
-24 -3 -23 7 0 22 -1 32 -1 17 -2 18 -4 4 -19 -12 -15 -16 -70 -8 -93 1 -3 2
-7 2 -10 0 -3 17 -4 38 -4 42 2 100 36 100 60 0 18 -9 18 -32 -3 -10 -9 -18
-11 -18 -5 0 6 5 14 10 17 15 9 -17 38 -32 30 -7 -4 2 7 21 24 27 24 29 29 12
24 -14 -4 -21 -1 -21 9 0 9 -9 14 -22 14 -16 -1 -24 5 -26 21 -2 13 -8 20 -16
17 -8 -3 -16 2 -19 10 -8 21 -24 20 -36 -2z"/>
<path d="M4350 5290 c-8 -16 -8 -20 4 -20 24 0 29 -19 11 -47 -13 -19 -14 -25
-4 -21 8 3 22 2 33 -1 18 -7 18 -8 1 -25 -13 -12 -15 -20 -7 -28 8 -8 8 -17 1
-30 -7 -12 -6 -18 2 -18 6 0 9 -6 6 -14 -4 -10 4 -12 35 -10 42 3 108 40 108
62 0 16 -11 15 -40 -5 -24 -16 -24 -16 -11 1 12 14 12 19 2 26 -8 4 -10 13 -6
21 6 11 5 12 -6 2 -7 -7 -18 -13 -23 -13 -6 1 4 14 23 30 27 23 29 28 12 23
-17 -4 -20 -2 -14 13 5 13 3 16 -10 11 -27 -10 -48 3 -41 25 5 16 2 19 -14 14
-13 -4 -22 -1 -26 9 -8 21 -23 19 -36 -5z"/>
<path d="M1623 5213 c-12 -2 -27 -11 -33 -19 -7 -8 -19 -14 -27 -14 -7 0 -17
-8 -20 -17 -11 -27 -71 -86 -81 -79 -14 8 -64 -33 -56 -46 4 -6 2 -8 -4 -4 -6
3 -13 2 -17 -4 -3 -5 -1 -10 6 -10 19 0 -1 -16 -30 -25 -16 -5 -21 -4 -17 4
14 23 -30 -3 -56 -33 -15 -17 -27 -25 -28 -19 0 7 17 32 37 55 60 69 70 85 31
49 -20 -18 -41 -30 -47 -27 -6 4 -16 -2 -23 -14 -7 -11 -18 -20 -24 -20 -13 0
-134 -118 -134 -131 0 -5 -6 -9 -13 -9 -17 0 -100 -104 -154 -194 -10 -15 -26
-38 -36 -50 -16 -20 -17 -20 -10 -1 7 21 5 21 -17 -9 -10 -13 -10 -17 -2 -12
16 9 15 -4 -2 -26 -15 -20 -31 -25 -20 -6 4 7 3 8 -4 4 -7 -4 -12 -16 -12 -27
0 -23 -20 -56 -71 -119 -20 -25 -40 -55 -44 -67 -10 -36 -56 -113 -66 -113 -5
0 -9 -6 -9 -14 0 -7 -20 -53 -44 -102 -55 -111 -136 -301 -136 -317 1 -7 7 2
15 18 7 17 14 23 14 15 0 -17 -28 -71 -29 -55 0 6 -8 -3 -16 -18 -22 -40 -45
-109 -35 -102 9 5 -6 -76 -16 -85 -3 -3 -3 11 0 30 12 65 -10 7 -28 -75 -10
-44 -26 -111 -36 -150 -33 -125 -46 -218 -49 -327 -1 -84 1 -108 12 -108 11 0
11 -2 0 -9 -17 -10 -11 -196 7 -214 6 -6 11 -24 11 -39 0 -16 7 -45 15 -64 8
-20 13 -40 10 -44 -6 -9 45 -113 58 -118 10 -5 52 -85 49 -95 -1 -5 2 -6 7 -3
5 3 24 -19 42 -49 18 -30 38 -55 44 -55 5 0 20 -16 33 -35 12 -19 30 -35 40
-35 9 0 37 -16 61 -35 25 -20 50 -34 56 -31 7 2 18 0 26 -6 11 -8 10 -9 -3 -4
-34 11 -17 -3 27 -23 53 -24 193 -62 215 -59 8 2 34 -1 58 -6 29 -5 53 -4 73
5 24 9 33 9 38 0 9 -14 81 -6 92 10 4 8 20 10 43 6 21 -3 36 -2 36 4 0 6 8 8
19 4 23 -7 113 22 124 41 4 8 23 14 42 14 19 0 37 5 40 10 3 6 14 10 23 10 10
0 35 16 57 35 43 37 132 85 158 85 10 0 17 4 17 10 0 13 32 50 43 50 4 0 27
20 50 43 23 24 47 46 52 48 6 2 37 39 70 82 33 42 65 77 72 77 7 0 13 3 14 8
8 69 17 92 35 85 8 -3 14 -2 13 3 -1 5 1 16 4 24 28 68 47 130 47 153 0 15 6
38 14 50 17 25 24 77 13 94 -4 6 -3 14 3 18 5 3 10 31 10 61 0 31 -4 53 -9 49
-6 -3 -5 9 0 30 8 27 6 43 -6 70 -10 19 -15 40 -12 47 4 11 -7 39 -34 88 -5 8
-20 39 -34 67 -15 29 -30 55 -35 58 -17 10 -54 69 -39 61 15 -8 3 3 -75 68
-25 21 -46 43 -46 48 0 15 -43 47 -62 48 -9 0 -27 11 -40 24 -24 24 -48 38
-138 79 -86 39 -129 53 -205 66 -38 7 -86 17 -106 23 -20 6 -46 7 -59 3 -15
-5 -25 -2 -31 6 -6 11 -16 11 -54 1 -25 -7 -65 -12 -90 -12 -25 0 -45 -5 -45
-11 0 -6 -8 -8 -18 -4 -21 6 -86 -18 -75 -28 8 -9 -20 -9 -41 -1 -12 5 -13 10
-5 25 6 13 6 19 -1 19 -5 0 -10 -4 -10 -10 0 -5 -5 -10 -12 -10 -6 0 -4 8 6
19 9 10 21 32 25 47 4 16 14 29 23 28 10 -1 15 9 15 30 0 17 -2 25 -4 19 -3
-7 -10 -13 -16 -13 -8 0 -7 4 1 12 14 14 45 20 36 7 -3 -5 0 -9 6 -9 7 0 10
-7 6 -15 -3 -8 -1 -15 4 -15 6 0 10 8 10 17 0 9 7 25 17 35 9 11 11 18 5 18
-7 0 -12 -6 -12 -12 0 -10 -2 -10 -9 0 -4 8 -12 13 -17 13 -13 -1 -11 8 14 60
12 25 31 54 42 64 13 12 17 21 10 25 -7 5 -6 11 5 20 13 11 14 10 9 -5 -6 -14
-4 -16 7 -10 10 7 9 1 -3 -18 -22 -33 -23 -43 -1 -26 9 8 18 13 20 12 10 -8
23 -1 23 11 0 8 11 28 25 44 14 17 25 35 25 42 0 16 37 78 64 108 20 23 20 24
2 37 -22 17 -16 40 13 48 12 3 19 1 15 -4 -3 -5 1 -9 9 -9 15 0 77 64 77 78 0
4 -9 -4 -19 -17 -11 -14 -21 -20 -25 -13 -3 6 -2 13 4 17 6 4 7 11 4 17 -4 6
-2 8 3 5 6 -4 14 1 17 10 6 15 8 15 16 3 8 -13 12 -12 27 4 10 10 12 16 6 12
-23 -13 -14 12 12 32 13 11 22 21 20 24 -3 3 1 5 8 5 22 0 68 35 63 49 -3 7 0
15 7 18 9 3 8 8 -3 15 -13 10 -13 12 0 20 8 5 18 7 24 4 5 -3 6 -1 2 5 -4 7
11 31 35 57 24 26 36 45 27 45 -18 0 -21 38 -3 63 7 10 11 25 8 33 -5 15 35
94 55 107 17 11 15 38 -3 31 -40 -16 2 35 51 63 26 14 39 6 22 -14 -6 -7 -8
-16 -5 -20 3 -3 -1 -19 -9 -35 -15 -29 -15 -29 8 -17 13 7 38 23 55 37 28 20
33 30 31 63 l-1 38 -28 -20 c-19 -13 -30 -16 -34 -8 -4 6 -18 9 -32 6 -20 -4
-24 -1 -20 14 4 14 -3 12 -33 -13 -22 -16 -41 -37 -44 -44 -3 -8 -10 -14 -16
-14 -6 0 -8 4 -5 10 3 5 0 7 -9 4 -11 -4 -14 3 -13 30 1 20 5 36 9 36 4 0 8
-4 8 -10 0 -5 3 -10 8 -10 4 0 7 16 8 35 0 19 -2 34 -5 34 -3 -1 -16 -4 -28
-6z m27 -17 c0 -2 -7 -7 -16 -10 -8 -3 -12 -2 -9 4 6 10 25 14 25 6z m-24
-135 c-4 -5 -1 -11 5 -13 7 -2 5 -9 -5 -17 -14 -12 -16 -10 -16 13 0 14 5 26
11 26 5 0 8 -4 5 -9z m-36 -55 c0 -2 -7 -9 -15 -16 -13 -11 -14 -10 -9 4 5 14
24 23 24 12z m-60 -321 c-6 -8 -9 -18 -6 -23 3 -6 -1 -15 -8 -21 -26 -21 -30
9 -5 35 24 26 39 33 19 9z m-169 -158 l-23 -22 17 28 c10 15 20 25 23 22 3 -3
-5 -16 -17 -28z m-579 -129 c-7 -7 -12 -8 -12 -2 0 14 12 26 19 19 2 -3 -1
-11 -7 -17z m483 -8 c-3 -5 -11 -10 -16 -10 -6 0 -7 5 -4 10 3 6 11 10 16 10
6 0 7 -4 4 -10z m5 -25 c-10 -12 -10 -15 1 -15 9 -1 6 -8 -8 -19 -13 -11 -23
-23 -23 -28 0 -4 -16 -21 -35 -36 -19 -15 -35 -26 -35 -24 0 17 40 78 67 105
35 33 55 43 33 17z m-60 -139 c0 -2 -8 -10 -17 -17 -16 -13 -17 -12 -4 4 13
16 21 21 21 13z m-588 -108 c-7 -7 -12 -8 -12 -2 0 14 12 26 19 19 2 -3 -1
-11 -7 -17z m-12 -37 c0 -5 -7 -14 -15 -21 -16 -14 -18 -10 -9 14 6 17 24 22
24 7z m-234 -608 c-10 -26 -18 -8 -9 23 5 21 8 24 11 11 2 -10 1 -25 -2 -34z
m-34 -140 c-3 -16 -7 -22 -10 -15 -4 13 4 42 11 42 2 0 2 -12 -1 -27z m-19
-103 c-3 -12 -8 -19 -11 -16 -5 6 5 36 12 36 2 0 2 -9 -1 -20z m-13 -400 c0
-5 -2 -10 -4 -10 -3 0 -8 5 -11 10 -3 6 -1 10 4 10 6 0 11 -4 11 -10z"/>
<path d="M4093 5213 c-12 -2 -27 -11 -33 -19 -7 -8 -19 -14 -26 -14 -8 0 -14
-6 -14 -14 0 -8 -10 -22 -22 -31 -13 -8 -23 -21 -23 -27 0 -7 -13 -17 -30 -21
-44 -14 -60 -24 -57 -37 1 -6 -2 -9 -7 -6 -5 3 -14 -1 -21 -9 -9 -10 -9 -15
-1 -15 6 0 11 -4 11 -9 0 -13 -49 -20 -53 -8 -2 6 -22 -7 -45 -27 -23 -21 -42
-34 -42 -29 0 11 74 99 100 120 8 7 12 13 8 13 -4 0 -23 -14 -42 -31 -20 -17
-40 -28 -45 -24 -6 3 -15 -4 -21 -15 -6 -11 -16 -20 -23 -20 -7 0 -24 -12 -38
-27 -13 -16 -39 -40 -57 -56 -18 -15 -32 -34 -32 -42 0 -8 -7 -15 -15 -15 -25
0 -124 -123 -159 -196 -16 -33 -36 -53 -50 -51 -5 1 -10 -8 -11 -21 -1 -12 -8
-28 -15 -35 -10 -10 -12 -8 -6 8 5 14 4 17 -3 10 -6 -6 -12 -19 -14 -30 -4
-29 -25 -64 -67 -115 -20 -25 -48 -70 -62 -100 -14 -30 -37 -70 -52 -89 -14
-19 -26 -40 -26 -47 0 -16 -61 -128 -72 -132 -4 -2 -6 -8 -3 -13 3 -4 -3 -25
-13 -46 -23 -44 -82 -191 -82 -201 1 -4 7 4 15 18 8 14 14 19 14 10 0 -16 -29
-60 -29 -44 -1 5 -14 -22 -30 -59 -30 -70 -38 -94 -20 -67 15 24 12 -19 -5
-55 -11 -24 -14 -26 -15 -10 -3 35 -23 -45 -79 -310 -24 -114 -38 -320 -22
-329 6 -4 9 -11 6 -16 -11 -18 -16 -148 -6 -154 6 -4 8 -13 5 -21 -3 -7 0 -23
6 -35 6 -12 13 -37 15 -55 1 -19 10 -47 18 -64 9 -17 11 -31 7 -31 -12 0 -1
-29 22 -59 10 -13 18 -32 18 -42 0 -10 6 -22 13 -26 8 -4 22 -24 33 -43 10
-19 24 -38 31 -43 7 -4 24 -30 39 -57 15 -27 30 -48 33 -47 4 1 22 -15 40 -36
18 -20 39 -37 46 -37 7 0 32 -16 55 -35 28 -23 49 -34 60 -30 10 3 22 0 26 -6
5 -9 2 -10 -10 -6 -10 4 -15 3 -11 -3 3 -6 13 -10 21 -10 8 0 25 -7 37 -14 62
-41 279 -72 351 -51 21 6 27 5 22 -4 -11 -18 60 -14 79 5 11 12 26 15 51 11
20 -4 34 -2 34 5 0 6 10 8 23 4 27 -6 130 26 125 40 -2 5 13 10 32 12 19 2 41
9 48 15 8 6 22 11 32 12 10 1 38 19 63 41 24 21 67 47 96 58 33 12 70 36 104
70 28 28 69 64 90 80 35 27 69 68 118 144 11 17 27 32 35 32 7 0 16 10 18 23
14 69 17 76 29 71 15 -6 71 139 69 179 -1 15 5 39 15 53 24 38 32 278 9 321
-8 17 -14 39 -14 49 2 26 -79 187 -117 232 -16 20 -56 63 -87 96 -32 32 -58
62 -58 66 0 10 -46 40 -62 40 -6 0 -26 13 -43 29 -42 40 -198 109 -303 132
-168 38 -181 41 -203 34 -13 -5 -25 -2 -30 6 -6 10 -18 10 -59 1 -28 -7 -66
-12 -84 -12 -18 0 -36 -3 -40 -7 -4 -4 -19 -9 -34 -10 -49 -4 -67 -10 -64 -23
1 -7 -7 -10 -20 -8 -18 2 -22 9 -20 27 2 20 0 22 -13 11 -9 -8 -15 -8 -15 -2
0 6 4 14 10 17 5 3 13 20 18 38 5 18 15 33 23 33 8 1 18 2 22 3 5 0 1 8 -7 17
-18 18 -20 30 -6 39 5 3 7 0 4 -8 -4 -11 1 -13 21 -10 21 5 24 2 19 -13 -5
-15 -4 -16 4 -4 6 8 8 18 6 22 -3 4 -1 8 4 8 6 0 13 7 16 16 5 14 4 15 -9 4
-13 -11 -14 -10 -8 6 6 16 5 17 -9 6 -10 -8 -19 -9 -22 -3 -7 10 25 71 37 71
5 0 5 4 2 10 -3 5 5 21 19 35 14 14 23 31 20 39 -3 8 -1 17 5 21 10 6 16 -8
12 -29 -1 -4 1 -17 5 -28 5 -18 8 -19 21 -5 8 8 16 26 16 40 1 14 4 25 7 25
18 -3 40 18 40 37 0 13 20 50 44 82 41 56 42 60 25 71 -22 14 -16 38 12 45 14
4 19 0 19 -14 0 -18 3 -17 24 8 16 19 21 32 15 40 -7 7 -6 14 1 18 6 3 7 11 4
17 -4 6 -2 8 3 5 6 -4 13 0 17 8 3 8 10 15 16 15 6 0 8 -4 5 -10 -13 -21 13
-9 36 17 19 22 19 24 3 10 -19 -16 -22 -16 -27 -3 -4 9 -3 15 1 13 9 -3 53 29
47 34 -2 3 6 6 18 6 12 1 23 7 25 13 2 5 10 10 17 10 15 0 28 53 14 58 -6 3
-5 10 2 18 6 8 16 11 22 7 6 -3 7 -1 3 5 -4 7 11 31 34 55 37 41 52 65 31 53
-16 -10 -21 25 -7 52 7 15 11 32 9 39 -2 7 11 36 30 65 38 59 42 74 22 70 -9
-2 -13 3 -9 12 7 17 79 67 87 60 6 -7 -6 -53 -22 -83 -16 -29 -7 -27 46 12 49
34 65 62 56 96 l-5 21 -29 -21 c-17 -12 -29 -16 -29 -9 0 8 -11 11 -30 8 -27
-4 -30 -2 -24 16 4 15 -9 6 -43 -27 -34 -33 -55 -46 -66 -41 -22 8 -21 20 1
42 16 16 27 84 13 81 -3 -1 -16 -4 -28 -6z m17 -53 c0 -5 -5 -10 -11 -10 -5 0
-7 5 -4 10 3 6 8 10 11 10 2 0 4 -4 4 -10z m40 -80 c0 -5 -5 -10 -11 -10 -5 0
-7 5 -4 10 3 6 8 10 11 10 2 0 4 -4 4 -10z m-54 -19 c-4 -5 -1 -11 5 -13 7 -2
5 -9 -5 -17 -14 -12 -16 -11 -16 6 0 11 3 23 7 26 9 10 15 8 9 -2z m-36 -55
c0 -2 -8 -10 -17 -17 -16 -13 -17 -12 -4 4 13 16 21 21 21 13z m-58 -323 c-6
-3 -9 -9 -6 -14 3 -6 0 -17 -7 -25 -10 -12 -14 -12 -20 -2 -9 14 30 63 40 52
3 -4 0 -9 -7 -11z m-152 -138 c0 -8 -10 -19 -21 -26 -21 -11 -21 -11 -3 15 22
30 24 31 24 11z m-599 -148 c-10 -9 -11 -8 -5 6 3 10 9 15 12 12 3 -3 0 -11
-7 -18z m489 -1 c0 -3 -4 -8 -10 -11 -5 -3 -10 -1 -10 4 0 6 5 11 10 11 6 0
10 -2 10 -4z m11 -25 c-7 -5 -11 -14 -7 -20 4 -5 -2 -16 -14 -23 -11 -7 -20
-17 -20 -23 0 -10 -8 -18 -53 -54 -16 -13 -16 -11 -1 25 17 40 77 104 97 104
8 0 7 -3 -2 -9z m-579 -113 c-7 -7 -12 -8 -12 -2 0 6 3 14 7 17 3 4 9 5 12 2
2 -3 -1 -11 -7 -17z m-62 -122 c0 -3 -4 -8 -10 -11 -5 -3 -10 -1 -10 4 0 6 5
11 10 11 6 0 10 -2 10 -4z m-38 -68 c-7 -7 -12 -8 -12 -2 0 6 3 14 7 17 3 4 9
5 12 2 2 -3 -1 -11 -7 -17z m358 -308 c-8 -5 -19 -10 -25 -10 -5 0 -3 5 5 10
8 5 20 10 25 10 6 0 3 -5 -5 -10z m-580 -265 c0 -14 -4 -25 -9 -25 -4 0 -6 11
-3 25 2 14 6 25 8 25 2 0 4 -11 4 -25z m-35 -165 c-4 -12 -9 -19 -12 -17 -3 3
-2 15 2 27 4 12 9 19 12 17 3 -3 2 -15 -2 -27z m5 -725 c0 -5 -5 -3 -10 5 -5
8 -10 20 -10 25 0 6 5 3 10 -5 5 -8 10 -19 10 -25z"/>
<path d="M1876 5173 c-3 -7 -2 -13 3 -13 5 0 14 6 20 13 8 10 7 14 -4 14 -8 0
-16 -6 -19 -14z"/>
<path d="M4350 5175 c-8 -9 -8 -15 -2 -15 12 0 26 19 19 26 -2 2 -10 -2 -17
-11z"/>
<path d="M1470 5099 c0 -5 5 -7 10 -4 6 3 10 8 10 11 0 2 -4 4 -10 4 -5 0 -10
-5 -10 -11z"/>
<path d="M3940 5099 c0 -5 5 -7 10 -4 6 3 10 8 10 11 0 2 -4 4 -10 4 -5 0 -10
-5 -10 -11z"/>
<path d="M1856 5071 c-3 -5 3 -11 13 -14 14 -3 18 -1 14 9 -6 16 -19 18 -27 5z"/>
<path d="M4326 5071 c-3 -5 3 -11 13 -14 14 -3 18 -1 14 9 -6 16 -19 18 -27 5z"/>
<path d="M1806 5034 c-19 -13 -18 -14 11 -14 18 0 35 5 39 12 5 7 2 9 -9 5 -9
-3 -17 -2 -19 3 -2 5 -12 2 -22 -6z"/>
<path d="M4282 5035 c-11 -13 -9 -15 12 -15 30 0 42 15 20 24 -19 7 -16 8 -32
-9z"/>
<path d="M1715 5010 c-3 -5 -1 -10 4 -10 6 0 11 5 11 10 0 6 -2 10 -4 10 -3 0
-8 -4 -11 -10z"/>
<path d="M4185 5010 c-3 -5 -1 -10 4 -10 6 0 11 5 11 10 0 6 -2 10 -4 10 -3 0
-8 -4 -11 -10z"/>
<path d="M3877 4503 c-4 -3 -7 -11 -7 -17 0 -6 5 -5 12 2 6 6 9 14 7 17 -3 3
-9 2 -12 -2z"/>
<path d="M3588 4118 c-36 -48 -41 -59 -26 -53 11 5 62 85 53 85 -1 0 -14 -15
-27 -32z"/>
<path d="M1135 4099 c-9 -17 -15 -33 -13 -35 3 -2 12 12 21 31 21 43 13 47 -8
4z"/>
<path d="M1097 4094 c-14 -19 -15 -24 -4 -24 8 0 17 10 20 22 8 30 5 30 -16 2z"/>
<path d="M3597 4083 c-4 -3 -7 -13 -7 -22 1 -13 3 -13 11 2 11 19 8 33 -4 20z"/>
<path d="M4630 3411 c0 -6 4 -13 10 -16 6 -3 7 1 4 9 -7 18 -14 21 -14 7z"/>
</g>
</svg>
